<svg width="83" height="24" viewBox="0 0 83 24" fill="none" xmlns="http://www.w3.org/2000/svg">
<path d="M29.179 16H28.2557L30.9261 8.72727H31.8352L34.5057 16H33.5824L31.4091 9.87784H31.3523L29.179 16ZM29.5199 13.1591H33.2415V13.9403H29.5199V13.1591ZM37.5845 16.1136C37.13 16.1136 36.7287 15.9988 36.3807 15.7692C36.0327 15.5372 35.7604 15.2105 35.5639 14.7891C35.3674 14.3653 35.2692 13.8646 35.2692 13.2869C35.2692 12.714 35.3674 12.2169 35.5639 11.7955C35.7604 11.3741 36.0339 11.0485 36.3842 10.8189C36.7346 10.5893 37.1394 10.4744 37.5987 10.4744C37.9538 10.4744 38.2344 10.5336 38.4403 10.652C38.6487 10.768 38.8073 10.9006 38.9162 11.0497C39.0275 11.1965 39.1139 11.3172 39.1754 11.4119H39.2464V8.72727H40.0845V16H39.2749V15.1619H39.1754C39.1139 15.2614 39.0263 15.3868 38.9126 15.5384C38.799 15.6875 38.6368 15.8213 38.4261 15.9396C38.2154 16.0556 37.9349 16.1136 37.5845 16.1136ZM37.6982 15.3608C38.0343 15.3608 38.3184 15.2732 38.5504 15.098C38.7824 14.9205 38.9588 14.6754 39.0795 14.3629C39.2003 14.0481 39.2607 13.6847 39.2607 13.2727C39.2607 12.8655 39.2015 12.5092 39.0831 12.2038C38.9647 11.8961 38.7895 11.657 38.5575 11.4865C38.3255 11.3137 38.0391 11.2273 37.6982 11.2273C37.343 11.2273 37.0471 11.3184 36.8104 11.5007C36.576 11.6806 36.3996 11.9257 36.2812 12.2358C36.1652 12.5436 36.1072 12.8892 36.1072 13.2727C36.1072 13.661 36.1664 14.0137 36.2848 14.331C36.4055 14.6458 36.5831 14.8968 36.8175 15.0838C37.0542 15.2685 37.3478 15.3608 37.6982 15.3608ZM43.7955 16.1136C43.3409 16.1136 42.9396 15.9988 42.5916 15.7692C42.2436 15.5372 41.9714 15.2105 41.7749 14.7891C41.5784 14.3653 41.4801 13.8646 41.4801 13.2869C41.4801 12.714 41.5784 12.2169 41.7749 11.7955C41.9714 11.3741 42.2448 11.0485 42.5952 10.8189C42.9455 10.5893 43.3504 10.4744 43.8097 10.4744C44.1648 10.4744 44.4453 10.5336 44.6513 10.652C44.8596 10.768 45.0182 10.9006 45.1271 11.0497C45.2384 11.1965 45.3248 11.3172 45.3864 11.4119H45.4574V8.72727H46.2955V16H45.4858V15.1619H45.3864C45.3248 15.2614 45.2372 15.3868 45.1236 15.5384C45.0099 15.6875 44.8478 15.8213 44.6371 15.9396C44.4264 16.0556 44.1458 16.1136 43.7955 16.1136ZM43.9091 15.3608C44.2453 15.3608 44.5294 15.2732 44.7614 15.098C44.9934 14.9205 45.1697 14.6754 45.2905 14.3629C45.4112 14.0481 45.4716 13.6847 45.4716 13.2727C45.4716 12.8655 45.4124 12.5092 45.294 12.2038C45.1757 11.8961 45.0005 11.657 44.7685 11.4865C44.5365 11.3137 44.25 11.2273 43.9091 11.2273C43.554 11.2273 43.258 11.3184 43.0213 11.5007C42.7869 11.6806 42.6106 11.9257 42.4922 12.2358C42.3762 12.5436 42.3182 12.8892 42.3182 13.2727C42.3182 13.661 42.3774 14.0137 42.4957 14.331C42.6165 14.6458 42.794 14.8968 43.0284 15.0838C43.2652 15.2685 43.5587 15.3608 43.9091 15.3608ZM53.1314 10.5455V11.2557H50.3047V10.5455H53.1314ZM51.1286 9.23864H51.9666V14.4375C51.9666 14.6742 52.0009 14.8518 52.0696 14.9702C52.1406 15.0862 52.2306 15.1643 52.3395 15.2045C52.4508 15.2424 52.5679 15.2614 52.6911 15.2614C52.7834 15.2614 52.8591 15.2566 52.9183 15.2472C52.9775 15.2353 53.0249 15.2259 53.0604 15.2188L53.2308 15.9716C53.174 15.9929 53.0947 16.0142 52.9929 16.0355C52.8911 16.0592 52.7621 16.071 52.6058 16.071C52.3691 16.071 52.1371 16.0201 51.9098 15.9183C51.6849 15.8165 51.4979 15.6615 51.3487 15.4531C51.2019 15.2448 51.1286 14.982 51.1286 14.6648V9.23864ZM56.5494 16.1136C56.0569 16.1136 55.6249 15.9964 55.2532 15.7621C54.8839 15.5277 54.5951 15.1998 54.3867 14.7784C54.1808 14.357 54.0778 13.8646 54.0778 13.3011C54.0778 12.733 54.1808 12.237 54.3867 11.8132C54.5951 11.3894 54.8839 11.0604 55.2532 10.826C55.6249 10.5916 56.0569 10.4744 56.5494 10.4744C57.0418 10.4744 57.4727 10.5916 57.842 10.826C58.2137 11.0604 58.5025 11.3894 58.7085 11.8132C58.9168 12.237 59.021 12.733 59.021 13.3011C59.021 13.8646 58.9168 14.357 58.7085 14.7784C58.5025 15.1998 58.2137 15.5277 57.842 15.7621C57.4727 15.9964 57.0418 16.1136 56.5494 16.1136ZM56.5494 15.3608C56.9234 15.3608 57.2312 15.2649 57.4727 15.0732C57.7141 14.8814 57.8929 14.6293 58.0089 14.3168C58.1249 14.0043 58.1829 13.6657 58.1829 13.3011C58.1829 12.9366 58.1249 12.5968 58.0089 12.282C57.8929 11.9671 57.7141 11.7126 57.4727 11.5185C57.2312 11.3243 56.9234 11.2273 56.5494 11.2273C56.1753 11.2273 55.8675 11.3243 55.6261 11.5185C55.3846 11.7126 55.2058 11.9671 55.0898 12.282C54.9738 12.5968 54.9158 12.9366 54.9158 13.3011C54.9158 13.6657 54.9738 14.0043 55.0898 14.3168C55.2058 14.6293 55.3846 14.8814 55.6261 15.0732C55.8675 15.2649 56.1753 15.3608 56.5494 15.3608ZM69.0787 11H68.198C68.1459 10.7467 68.0547 10.5241 67.9245 10.3324C67.7967 10.1406 67.6404 9.97964 67.4558 9.84943C67.2735 9.71686 67.0711 9.61742 66.8485 9.55114C66.626 9.48485 66.394 9.4517 66.1525 9.4517C65.7122 9.4517 65.3133 9.56297 64.9558 9.78551C64.6007 10.008 64.3178 10.3359 64.1071 10.7692C63.8987 11.2024 63.7946 11.7339 63.7946 12.3636C63.7946 12.9934 63.8987 13.5249 64.1071 13.9581C64.3178 14.3913 64.6007 14.7192 64.9558 14.9418C65.3133 15.1643 65.7122 15.2756 66.1525 15.2756C66.394 15.2756 66.626 15.2424 66.8485 15.1761C67.0711 15.1098 67.2735 15.0116 67.4558 14.8814C67.6404 14.7488 67.7967 14.5866 67.9245 14.3949C68.0547 14.2008 68.1459 13.9782 68.198 13.7273H69.0787C69.0124 14.099 68.8916 14.4316 68.7164 14.7251C68.5413 15.0187 68.3234 15.2685 68.063 15.4744C67.8026 15.678 67.5102 15.8331 67.1859 15.9396C66.8639 16.0462 66.5195 16.0994 66.1525 16.0994C65.5323 16.0994 64.9806 15.9479 64.4977 15.6449C64.0147 15.3419 63.6348 14.911 63.3578 14.3523C63.0808 13.7936 62.9423 13.1307 62.9423 12.3636C62.9423 11.5966 63.0808 10.9337 63.3578 10.375C63.6348 9.81629 64.0147 9.38542 64.4977 9.08239C64.9806 8.77936 65.5323 8.62784 66.1525 8.62784C66.5195 8.62784 66.8639 8.68111 67.1859 8.78764C67.5102 8.89418 67.8026 9.05043 68.063 9.25639C68.3234 9.45999 68.5413 9.70857 68.7164 10.0021C68.8916 10.2933 69.0124 10.6259 69.0787 11ZM71.9933 16.1278C71.6476 16.1278 71.3339 16.0627 71.0522 15.9325C70.7705 15.8 70.5468 15.6094 70.381 15.3608C70.2153 15.1098 70.1325 14.8068 70.1325 14.4517C70.1325 14.1392 70.194 13.8859 70.3171 13.6918C70.4402 13.4953 70.6048 13.3414 70.8107 13.2301C71.0167 13.1188 71.244 13.036 71.4925 12.9815C71.7435 12.9247 71.9956 12.8797 72.2489 12.8466C72.5804 12.804 72.8491 12.772 73.055 12.7507C73.2634 12.727 73.4149 12.688 73.5096 12.6335C73.6067 12.5791 73.6552 12.4844 73.6552 12.3494V12.321C73.6552 11.9706 73.5593 11.6984 73.3675 11.5043C73.1781 11.3101 72.8905 11.2131 72.5046 11.2131C72.1045 11.2131 71.7908 11.3007 71.5636 11.4759C71.3363 11.651 71.1765 11.8381 71.0842 12.0369L70.2887 11.7528C70.4308 11.4214 70.6201 11.1634 70.8569 10.9787C71.096 10.7917 71.3564 10.6615 71.6381 10.5881C71.9222 10.5123 72.2016 10.4744 72.4762 10.4744C72.6514 10.4744 72.8526 10.4957 73.0799 10.5384C73.3095 10.5786 73.5309 10.6626 73.744 10.7905C73.9594 10.9183 74.1381 11.1113 74.2802 11.3693C74.4222 11.6274 74.4933 11.973 74.4933 12.4062V16H73.6552V15.2614H73.6126C73.5558 15.3797 73.4611 15.5064 73.3285 15.6413C73.1959 15.7763 73.0195 15.8911 72.7994 15.9858C72.5792 16.0805 72.3105 16.1278 71.9933 16.1278ZM72.1211 15.375C72.4525 15.375 72.7319 15.3099 72.9592 15.1797C73.1888 15.0495 73.3616 14.8814 73.4776 14.6754C73.596 14.4695 73.6552 14.2528 73.6552 14.0256V13.2585C73.6197 13.3011 73.5415 13.3402 73.4208 13.3757C73.3024 13.4089 73.1651 13.4384 73.0089 13.4645C72.855 13.4882 72.7047 13.5095 72.5579 13.5284C72.4135 13.545 72.2963 13.5592 72.2063 13.571C71.9885 13.5994 71.7849 13.6456 71.5955 13.7095C71.4085 13.7711 71.257 13.8646 71.141 13.9901C71.0273 14.1132 70.9705 14.2812 70.9705 14.4943C70.9705 14.7855 71.0782 15.0057 71.2937 15.1548C71.5115 15.3016 71.7873 15.375 72.1211 15.375ZM76.0229 16V10.5455H76.8326V11.3693H76.8894C76.9888 11.0994 77.1687 10.8804 77.4292 10.7124C77.6896 10.5443 77.9831 10.4602 78.3098 10.4602C78.3714 10.4602 78.4483 10.4614 78.5407 10.4638C78.633 10.4661 78.7028 10.4697 78.7502 10.4744V11.3267C78.7218 11.3196 78.6567 11.3089 78.5549 11.2947C78.4554 11.2782 78.3501 11.2699 78.2388 11.2699C77.9737 11.2699 77.7369 11.3255 77.5286 11.4368C77.3226 11.5457 77.1593 11.6972 77.0385 11.8913C76.9202 12.0831 76.861 12.3021 76.861 12.5483V16H76.0229ZM82.4576 10.5455V11.2557H79.6309V10.5455H82.4576ZM80.4547 9.23864H81.2928V14.4375C81.2928 14.6742 81.3271 14.8518 81.3958 14.9702C81.4668 15.0862 81.5568 15.1643 81.6657 15.2045C81.7769 15.2424 81.8941 15.2614 82.0172 15.2614C82.1096 15.2614 82.1853 15.2566 82.2445 15.2472C82.3037 15.2353 82.351 15.2259 82.3865 15.2188L82.557 15.9716C82.5002 15.9929 82.4209 16.0142 82.3191 16.0355C82.2173 16.0592 82.0882 16.071 81.932 16.071C81.6953 16.071 81.4632 16.0201 81.236 15.9183C81.0111 15.8165 80.824 15.6615 80.6749 15.4531C80.5281 15.2448 80.4547 14.982 80.4547 14.6648V9.23864Z" fill="white"/>
<path d="M12 1.5C6.20156 1.5 1.5 6.20156 1.5 12C1.5 17.7984 6.20156 22.5 12 22.5C17.7984 22.5 22.5 17.7984 22.5 12C22.5 6.20156 17.7984 1.5 12 1.5ZM16.5 12.5625C16.5 12.6656 16.4156 12.75 16.3125 12.75H12.75V16.3125C12.75 16.4156 12.6656 16.5 12.5625 16.5H11.4375C11.3344 16.5 11.25 16.4156 11.25 16.3125V12.75H7.6875C7.58437 12.75 7.5 12.6656 7.5 12.5625V11.4375C7.5 11.3344 7.58437 11.25 7.6875 11.25H11.25V7.6875C11.25 7.58437 11.3344 7.5 11.4375 7.5H12.5625C12.6656 7.5 12.75 7.58437 12.75 7.6875V11.25H16.3125C16.4156 11.25 16.5 11.3344 16.5 11.4375V12.5625Z" fill="#8A8A8A"/>
</svg>