<svg width="166" height="48" viewBox="0 0 166 48" fill="none" xmlns="http://www.w3.org/2000/svg">
<rect width="166" height="48" rx="16" fill="white"/>
<path d="M31.3476 20.7L32.2968 14.4H27.36L25.2972 19.8C25.2336 19.992 25.2 20.1912 25.2 20.4C25.2 21.7248 26.58 22.8 28.2852 22.8C29.8572 22.8 31.1568 21.8832 31.3476 20.7ZM36 22.8C37.704 22.8 39.0852 21.7248 39.0852 20.4C39.0852 20.3508 39.0816 20.3016 39.0792 20.2548L38.4684 14.4H33.5316L32.9196 20.25C32.9168 20.3 32.9152 20.35 32.9148 20.4C32.9148 21.7248 34.296 22.8 36 22.8ZM42 24.0552V28.8H30V24.0624C29.4744 24.252 28.896 24.36 28.2852 24.36C28.0512 24.36 27.8244 24.3324 27.6 24.3012V31.92C27.6 32.844 28.3548 33.6 29.2776 33.6H42.72C43.644 33.6 44.4 32.8428 44.4 31.92V24.3024C44.1732 24.3372 43.9443 24.3569 43.7148 24.3612C43.1297 24.3606 42.5492 24.257 42 24.0552ZM46.704 19.8L44.6388 14.4H39.7032L40.6512 20.6904C40.836 21.8784 42.1356 22.8 43.7148 22.8C45.4188 22.8 46.8 21.7248 46.8 20.4C46.8 20.1912 46.7664 19.992 46.704 19.8Z" fill="#DA00FE"/>
<path d="M67.488 24.4C67.488 25.2427 67.3547 26.016 67.088 26.72C66.832 27.4133 66.464 28.0213 65.984 28.544C65.504 29.056 64.9333 29.456 64.272 29.744C63.6213 30.0213 62.9067 30.16 62.128 30.16C61.3493 30.16 60.6293 30.0213 59.968 29.744C59.3173 29.456 58.752 29.056 58.272 28.544C57.792 28.0213 57.4187 27.4133 57.152 26.72C56.896 26.016 56.768 25.2427 56.768 24.4C56.768 23.5573 56.896 22.7893 57.152 22.096C57.4187 21.392 57.792 20.784 58.272 20.272C58.752 19.7493 59.3173 19.3493 59.968 19.072C60.6293 18.784 61.3493 18.64 62.128 18.64C62.9067 18.64 63.6213 18.784 64.272 19.072C64.9333 19.3493 65.504 19.7493 65.984 20.272C66.464 20.784 66.832 21.392 67.088 22.096C67.3547 22.7893 67.488 23.5573 67.488 24.4ZM66.464 24.4C66.464 23.4507 66.2773 22.6187 65.904 21.904C65.5413 21.1787 65.0347 20.6133 64.384 20.208C63.7333 19.8027 62.9813 19.6 62.128 19.6C61.2853 19.6 60.5333 19.8027 59.872 20.208C59.2213 20.6133 58.7093 21.1787 58.336 21.904C57.9733 22.6187 57.792 23.4507 57.792 24.4C57.792 25.3493 57.9733 26.1867 58.336 26.912C58.7093 27.6267 59.2213 28.1867 59.872 28.592C60.5333 28.9973 61.2853 29.2 62.128 29.2C62.9813 29.2 63.7333 28.9973 64.384 28.592C65.0347 28.1867 65.5413 27.6267 65.904 26.912C66.2773 26.1867 66.464 25.3493 66.464 24.4ZM70.634 30C70.4847 30 70.3673 29.952 70.282 29.856C70.1967 29.76 70.154 29.648 70.154 29.52V22.352C70.154 22.224 70.1967 22.112 70.282 22.016C70.378 21.92 70.4953 21.872 70.634 21.872C70.7727 21.872 70.8847 21.92 70.97 22.016C71.066 22.112 71.114 22.224 71.114 22.352V24.752L70.874 24.8C70.906 24.4267 70.9967 24.0587 71.146 23.696C71.306 23.3227 71.5193 22.9813 71.786 22.672C72.0527 22.3627 72.3673 22.112 72.73 21.92C73.1033 21.728 73.5193 21.632 73.978 21.632C74.17 21.632 74.3567 21.6747 74.538 21.76C74.7193 21.8347 74.81 21.9627 74.81 22.144C74.81 22.304 74.7673 22.4267 74.682 22.512C74.5967 22.5973 74.4953 22.64 74.378 22.64C74.282 22.64 74.1753 22.6133 74.058 22.56C73.9513 22.5067 73.8073 22.48 73.626 22.48C73.3273 22.48 73.0287 22.5707 72.73 22.752C72.4313 22.9227 72.1593 23.1573 71.914 23.456C71.6687 23.7547 71.4713 24.0907 71.322 24.464C71.1833 24.8267 71.114 25.1947 71.114 25.568V29.52C71.114 29.648 71.066 29.76 70.97 29.856C70.874 29.952 70.762 30 70.634 30ZM83.2949 18.16C83.4335 18.16 83.5455 18.208 83.6309 18.304C83.7269 18.3893 83.7749 18.5013 83.7749 18.64V29.52C83.7749 29.648 83.7269 29.76 83.6309 29.856C83.5349 29.952 83.4229 30 83.2949 30C83.1562 30 83.0389 29.952 82.9429 29.856C82.8575 29.76 82.8149 29.648 82.8149 29.52V27.616L83.0869 27.392C83.0869 27.6907 83.0069 28.0053 82.8469 28.336C82.6869 28.656 82.4575 28.9547 82.1589 29.232C81.8709 29.5093 81.5295 29.7333 81.1349 29.904C80.7509 30.0747 80.3349 30.16 79.8869 30.16C79.1722 30.16 78.5269 29.9733 77.9509 29.6C77.3855 29.2267 76.9375 28.72 76.6069 28.08C76.2762 27.44 76.1109 26.7093 76.1109 25.888C76.1109 25.0773 76.2762 24.352 76.6069 23.712C76.9375 23.0613 77.3855 22.5547 77.9509 22.192C78.5162 21.8187 79.1562 21.632 79.8709 21.632C80.3082 21.632 80.7242 21.712 81.1189 21.872C81.5135 22.032 81.8602 22.2507 82.1589 22.528C82.4682 22.8053 82.7082 23.1253 82.8789 23.488C83.0602 23.84 83.1509 24.208 83.1509 24.592L82.8149 24.352V18.64C82.8149 18.512 82.8575 18.4 82.9429 18.304C83.0389 18.208 83.1562 18.16 83.2949 18.16ZM79.9669 29.264C80.5429 29.264 81.0442 29.12 81.4709 28.832C81.9082 28.5333 82.2495 28.1333 82.4949 27.632C82.7509 27.12 82.8789 26.5387 82.8789 25.888C82.8789 25.248 82.7509 24.6773 82.4949 24.176C82.2495 23.664 81.9082 23.264 81.4709 22.976C81.0335 22.6773 80.5322 22.528 79.9669 22.528C79.4122 22.528 78.9109 22.6773 78.4629 22.976C78.0255 23.264 77.6789 23.664 77.4229 24.176C77.1775 24.6773 77.0549 25.248 77.0549 25.888C77.0549 26.528 77.1775 27.104 77.4229 27.616C77.6789 28.128 78.0255 28.5333 78.4629 28.832C78.9109 29.12 79.4122 29.264 79.9669 29.264ZM90.63 30.16C89.8087 30.16 89.0833 29.984 88.454 29.632C87.8247 29.28 87.334 28.7893 86.982 28.16C86.63 27.5307 86.454 26.7947 86.454 25.952C86.454 25.0453 86.63 24.272 86.982 23.632C87.3447 22.992 87.8087 22.5013 88.374 22.16C88.95 21.808 89.558 21.632 90.198 21.632C90.6673 21.632 91.1207 21.7173 91.558 21.888C92.006 22.048 92.4007 22.2933 92.742 22.624C93.094 22.944 93.3713 23.3387 93.574 23.808C93.7873 24.2773 93.9047 24.8213 93.926 25.44C93.9153 25.568 93.862 25.68 93.766 25.776C93.67 25.8613 93.558 25.904 93.43 25.904H87.014L86.822 25.04H93.126L92.918 25.232V24.912C92.8753 24.4107 92.7153 23.984 92.438 23.632C92.1607 23.28 91.8247 23.0133 91.43 22.832C91.0353 22.6507 90.6247 22.56 90.198 22.56C89.878 22.56 89.5473 22.624 89.206 22.752C88.8753 22.88 88.5713 23.0827 88.294 23.36C88.0273 23.6267 87.8087 23.9733 87.638 24.4C87.4673 24.816 87.382 25.312 87.382 25.888C87.382 26.5173 87.51 27.088 87.766 27.6C88.022 28.112 88.39 28.5173 88.87 28.816C89.3607 29.1147 89.942 29.264 90.614 29.264C90.9873 29.264 91.3233 29.2107 91.622 29.104C91.9207 28.9973 92.182 28.8587 92.406 28.688C92.63 28.5067 92.8167 28.32 92.966 28.128C93.0833 28.032 93.2007 27.984 93.318 27.984C93.4247 27.984 93.5153 28.0267 93.59 28.112C93.6753 28.1973 93.718 28.2933 93.718 28.4C93.718 28.528 93.6647 28.64 93.558 28.736C93.238 29.12 92.822 29.456 92.31 29.744C91.798 30.0213 91.238 30.16 90.63 30.16ZM97.1009 30C96.9515 30 96.8342 29.952 96.7489 29.856C96.6635 29.76 96.6209 29.648 96.6209 29.52V22.352C96.6209 22.224 96.6635 22.112 96.7489 22.016C96.8449 21.92 96.9622 21.872 97.1009 21.872C97.2395 21.872 97.3515 21.92 97.4369 22.016C97.5329 22.112 97.5809 22.224 97.5809 22.352V24.752L97.3409 24.8C97.3729 24.4267 97.4635 24.0587 97.6129 23.696C97.7729 23.3227 97.9862 22.9813 98.2529 22.672C98.5195 22.3627 98.8342 22.112 99.1969 21.92C99.5702 21.728 99.9862 21.632 100.445 21.632C100.637 21.632 100.824 21.6747 101.005 21.76C101.186 21.8347 101.277 21.9627 101.277 22.144C101.277 22.304 101.234 22.4267 101.149 22.512C101.064 22.5973 100.962 22.64 100.845 22.64C100.749 22.64 100.642 22.6133 100.525 22.56C100.418 22.5067 100.274 22.48 100.093 22.48C99.7942 22.48 99.4955 22.5707 99.1969 22.752C98.8982 22.9227 98.6262 23.1573 98.3809 23.456C98.1355 23.7547 97.9382 24.0907 97.7889 24.464C97.6502 24.8267 97.5809 25.1947 97.5809 25.568V29.52C97.5809 29.648 97.5329 29.76 97.4369 29.856C97.3409 29.952 97.2289 30 97.1009 30ZM116.864 18.8C117.003 18.8 117.109 18.8427 117.184 18.928C117.269 19.0133 117.312 19.12 117.312 19.248V29.488C117.312 29.648 117.259 29.776 117.152 29.872C117.056 29.9573 116.944 30 116.816 30C116.752 30 116.683 29.9893 116.608 29.968C116.533 29.936 116.475 29.8933 116.432 29.84L109.296 20.224L109.568 20.08V29.568C109.568 29.6853 109.525 29.7867 109.44 29.872C109.355 29.9573 109.248 30 109.12 30C108.981 30 108.869 29.9573 108.784 29.872C108.709 29.7867 108.672 29.6853 108.672 29.568V19.28C108.672 19.12 108.72 19.0027 108.816 18.928C108.912 18.8427 109.019 18.8 109.136 18.8C109.2 18.8 109.269 18.816 109.344 18.848C109.419 18.8693 109.477 18.912 109.52 18.976L116.576 28.48L116.416 28.768V19.248C116.416 19.12 116.459 19.0133 116.544 18.928C116.64 18.8427 116.747 18.8 116.864 18.8ZM128.329 25.904C128.329 26.7147 128.153 27.4453 127.801 28.096C127.449 28.736 126.969 29.2427 126.361 29.616C125.753 29.9787 125.059 30.16 124.281 30.16C123.523 30.16 122.835 29.9787 122.217 29.616C121.609 29.2427 121.123 28.736 120.761 28.096C120.409 27.4453 120.233 26.7147 120.233 25.904C120.233 25.0827 120.409 24.352 120.761 23.712C121.123 23.072 121.609 22.5653 122.217 22.192C122.835 21.8187 123.523 21.632 124.281 21.632C125.059 21.632 125.753 21.8187 126.361 22.192C126.969 22.5653 127.449 23.072 127.801 23.712C128.153 24.352 128.329 25.0827 128.329 25.904ZM127.369 25.904C127.369 25.2533 127.235 24.6773 126.969 24.176C126.702 23.664 126.334 23.264 125.865 22.976C125.406 22.6773 124.878 22.528 124.281 22.528C123.705 22.528 123.182 22.6773 122.713 22.976C122.243 23.264 121.87 23.664 121.593 24.176C121.326 24.6773 121.193 25.2533 121.193 25.904C121.193 26.5547 121.326 27.1307 121.593 27.632C121.87 28.1333 122.243 28.5333 122.713 28.832C123.182 29.12 123.705 29.264 124.281 29.264C124.878 29.264 125.406 29.12 125.865 28.832C126.334 28.5333 126.702 28.1333 126.969 27.632C127.235 27.1307 127.369 26.5547 127.369 25.904ZM140.721 21.648C140.838 21.648 140.945 21.6907 141.041 21.776C141.148 21.8613 141.201 21.9787 141.201 22.128C141.201 22.16 141.196 22.1973 141.185 22.24C141.174 22.2827 141.164 22.3147 141.153 22.336L138.689 29.696C138.646 29.792 138.577 29.872 138.481 29.936C138.396 29.9893 138.305 30.0107 138.209 30C138.017 29.9893 137.873 29.888 137.777 29.696L135.521 24.384L135.809 24.448L133.809 29.696C133.724 29.888 133.58 29.9893 133.377 30C133.281 30.0107 133.185 29.9893 133.089 29.936C132.993 29.872 132.929 29.792 132.897 29.696L130.369 22.336C130.337 22.2613 130.321 22.192 130.321 22.128C130.321 21.9893 130.364 21.8773 130.449 21.792C130.545 21.696 130.668 21.648 130.817 21.648C130.913 21.648 130.998 21.6747 131.073 21.728C131.158 21.7813 131.217 21.8613 131.249 21.968L133.521 28.784L133.217 28.768L135.281 23.568C135.366 23.3653 135.516 23.264 135.729 23.264C135.836 23.264 135.926 23.2907 136.001 23.344C136.076 23.3973 136.134 23.472 136.177 23.568L138.369 28.784L138.017 28.8L140.273 21.968C140.337 21.7547 140.486 21.648 140.721 21.648Z" fill="#DA00FE"/>
</svg>